<svg width="192" height="192" viewBox="0 0 192 192" fill="none" xmlns="http://www.w3.org/2000/svg">
<style>
    @media (prefers-color-scheme: dark) {
        .features { fill: #F5EEDE }
        .face { fill: #404660 }
        .lineface { stroke: #F5EEDE }
    }
</style>
<circle class="face" cx="96" cy="89" r="84" fill="#F5EEDE"/>
<circle class="features" cx="59.5" cy="56.5" r="10.5" fill="#404660"/>
<circle class="features" cx="132.5" cy="56.5" r="10.5" fill="#404660"/>
<path class="lineface" d="M33.4902 170.498C31.5214 157.185 23.193 107.86 54.8183 97.1388C74.1777 90.5761 110.539 85.8056 133.24 97.1386C163.756 112.373 162.115 139.795 157.521 170.498" stroke="#404660" stroke-width="32" stroke-linecap="round" stroke-linejoin="round"/>
<path class="lineface" d="M45.3027 169.842C43.3339 156.529 35.0055 107.203 66.6308 96.4825C85.9902 89.9198 122.351 85.1493 145.053 96.4824C175.568 111.716 173.928 139.138 169.334 169.842" stroke="#404660" stroke-width="32" stroke-linecap="round" stroke-linejoin="round"/>
<path class="lineface" d="M25.6152 169.842C23.6464 156.529 15.318 107.203 46.9433 96.4825C66.3027 89.9198 102.664 85.1493 125.365 96.4824C155.881 111.716 154.24 139.138 149.646 169.842" stroke="#404660" stroke-width="32" stroke-linecap="round" stroke-linejoin="round"/>
<path class="lineface" d="M34.8027 167.873C32.8339 154.56 24.5055 105.235 56.1308 94.5138C75.4902 87.9511 111.851 83.1806 134.553 94.5136C165.068 109.748 163.428 137.17 158.834 167.873" stroke="#404660" stroke-width="32" stroke-linecap="round" stroke-linejoin="round"/>
<path class="lineface" d="M43 37L55.3367 31L74 37" stroke="#404660" stroke-width="18" stroke-linecap="round" stroke-linejoin="round"/>
<path class="lineface" d="M122 37L138.2 32L149 37" stroke="#404660" stroke-width="18" stroke-linecap="round" stroke-linejoin="round"/>
</svg>
