<?xml version="1.0" standalone="no"?>
<!DOCTYPE svg PUBLIC "-//W3C//DTD SVG 20010904//EN"
 "http://www.w3.org/TR/2001/REC-SVG-20010904/DTD/svg10.dtd">
<svg version="1.0" xmlns="http://www.w3.org/2000/svg"
 width="512.000000pt" height="512.000000pt" viewBox="0 0 512.000000 512.000000"
 preserveAspectRatio="xMidYMid meet">
<metadata>
Created by potrace 1.14, written by Peter Selinger 2001-2017
</metadata>
<g transform="translate(0.000000,512.000000) scale(0.100000,-0.100000)"
fill="#000000" stroke="none">
<path d="M2170 4938 c-132 -67 -132 -249 0 -315 43 -23 51 -23 390 -23 339 0
347 0 390 23 132 66 132 248 0 315 -43 22 -51 22 -390 22 -339 0 -347 0 -390
-22z"/>
<path d="M1525 4180 c-298 -130 -291 -126 -309 -164 -21 -44 -20 -81 1 -117
19 -32 68 -59 105 -59 13 0 102 34 197 75 95 41 182 77 193 81 14 4 54 -17
139 -71 134 -86 177 -99 228 -69 55 33 77 110 45 163 -9 15 -85 72 -175 130
-127 83 -168 104 -202 107 -35 3 -73 -10 -222 -76z"/>
<path d="M3207 4153 c-173 -112 -197 -136 -197 -198 0 -60 61 -115 127 -115
18 0 72 28 153 80 69 44 129 80 133 80 4 0 92 -36 196 -80 103 -44 200 -80
215 -80 39 0 83 29 101 66 33 71 8 132 -70 168 -150 71 -436 186 -461 186 -20
0 -82 -34 -197 -107z"/>
<path d="M1646 3714 c-70 -22 -149 -103 -170 -174 -9 -30 -16 -70 -16 -90 0
-150 130 -280 280 -280 150 0 280 130 280 280 0 152 -132 282 -284 279 -23 0
-63 -7 -90 -15z"/>
<path d="M3297 3716 c-93 -34 -158 -100 -183 -182 -40 -133 17 -267 140 -332
43 -22 64 -27 131 -27 70 0 87 4 134 30 201 111 200 389 -3 492 -62 32 -162
40 -219 19z"/>
<path d="M2280 3003 c-19 -1 -87 -8 -150 -14 -272 -25 -623 -87 -865 -154
-141 -39 -296 -107 -396 -176 -143 -97 -296 -274 -379 -438 -74 -149 -136
-369 -161 -576 -28 -235 -2 -738 56 -1096 29 -175 46 -220 102 -270 52 -47 99
-62 179 -57 52 3 72 10 109 36 29 20 58 32 79 32 41 0 92 17 129 42 27 19 28
19 73 -2 37 -18 58 -21 118 -18 88 4 141 34 186 105 42 66 45 111 21 280 -37
261 -44 374 -38 632 6 276 25 400 87 559 56 146 172 292 266 337 70 33 533 75
829 75 293 0 688 -34 765 -66 53 -22 173 -118 241 -193 149 -162 225 -372 244
-676 8 -127 -7 -351 -42 -626 -23 -182 -25 -222 -15 -256 17 -56 50 -102 101
-138 40 -28 49 -30 139 -31 54 -1 110 -7 125 -13 36 -14 115 -14 156 0 30 11
35 9 64 -19 84 -81 224 -84 315 -7 69 58 83 108 134 480 31 221 33 725 4 880
-88 480 -296 793 -686 1036 -291 180 -649 290 -1080 329 -104 9 -624 12 -710
3z"/>
</g>
</svg>
